Coordinates
version=1
nRows=14
nColumns=36
inDegrees=yes

Units are S.I. units (second, meters, Newtons, ...)
If the header above contains a line with 'inDegrees', this indicates whether rotational values are in degrees (yes) or radians (no).

endheader
time	pelvis_tilt	pelvis_list	pelvis_rotation	pelvis_tx	pelvis_ty	pelvis_tz	hip_flexion_r	hip_adduction_r	hip_rotation_r	knee_angle_r	knee_angle_r_beta	ankle_angle_r	subtalar_angle_r	mtp_angle_r	hip_flexion_l	hip_adduction_l	hip_rotation_l	knee_angle_l	knee_angle_l_beta	ankle_angle_l	subtalar_angle_l	mtp_angle_l	lumbar_extension	lumbar_bending	lumbar_rotation	arm_flex_r	arm_add_r	arm_rot_r	elbow_flex_r	pro_sup_r	arm_flex_l	arm_add_l	arm_rot_l	elbow_flex_l	pro_sup_l
      1.21000000	     -8.33499894	      0.62072496	     -2.34259052	     -0.75895193	      1.32446991	     -0.57247377	     19.04936187	     -0.59521505	      2.74230000	     51.26619509	      0.89476390	    -28.12122971	    -19.19641946	     -5.31258521	     14.70714556	     -3.19299389	     -4.10960258	     43.23072585	      0.75451850	    -31.33641506	    -11.91943339	     -5.31258521	     -1.90353396	     -0.31037329	     -0.83849927	     59.49352029	    -38.92252901	     32.22931334	     83.64337687	    109.47818467	     61.68100960	    -24.32558424	     11.06903905	     64.11795244	    111.33118947
      1.22000000	     -8.38448357	      0.71841588	     -1.98330870	     -0.75016905	      1.32757696	     -0.57232755	     20.64379517	     -0.75725599	      2.52490484	     52.34309171	      0.91355929	    -27.82349035	    -19.87277902	     -5.34415477	     16.43706641	     -3.16890296	     -3.78267186	     43.76443648	      0.76383351	    -30.61462619	    -12.87215228	     -5.34415477	     -2.21237552	     -0.55551619	     -1.17710654	     59.02319291	    -40.18200403	     32.39316209	     83.90626611	    109.57032457	     61.76308525	    -25.13342012	     10.50906439	     64.08425720	    111.30231436
      1.23000000	     -8.48337204	      0.69227774	     -1.63148182	     -0.74158700	      1.32971256	     -0.57225118	     22.13331493	     -0.83196313	      2.19349602	     52.76872009	      0.92098791	    -27.62398065	    -20.55573091	     -5.40715103	     18.08845591	     -3.30968065	     -3.64332069	     43.61325459	      0.76119489	    -30.84938354	    -14.22446169	     -5.40715103	     -2.53010996	     -0.62910470	     -1.34840424	     58.44872421	    -41.62540835	     32.48902384	     84.19883929	    109.69657618	     61.92563834	    -25.71934483	     10.08334305	     63.73450453	    111.30878076
      1.24000000	     -8.34315712	      0.57619847	     -1.34705894	     -0.73310375	      1.33149641	     -0.57197010	     23.10792359	     -0.83020898	      1.90978775	     52.30822562	      0.91295076	    -27.24713336	    -20.81107437	     -5.41451454	     19.22690387	     -3.59402424	     -3.65475126	     42.68531643	      0.74499931	    -30.52972681	    -14.65338821	     -5.41451454	     -3.20465977	     -0.64966781	     -1.67097243	     58.02560977	    -42.58930419	     32.57468919	     84.00842683	    109.70314763	     62.15872737	    -26.54832968	      9.76324910	     63.43575378	    111.26803984
      1.25000000	     -8.41274979	      0.46883421	     -1.02828347	     -0.72479146	      1.33210643	     -0.57191620	     24.13564628	     -0.90020678	      1.58159220	     51.15160260	      0.89276388	    -26.67714873	    -21.00345786	     -5.42365475	     20.45783671	     -3.79545975	     -3.58753392	     41.17072715	      0.71856474	    -29.99300902	    -15.27359325	     -5.42365475	     -3.67396067	     -0.58714568	     -1.90787091	     57.57769621	    -43.75054217	     32.86282589	     83.92595239	    109.72751269	     62.22897329	    -27.33012699	      9.54516837	     63.00513440	    111.22934371
      1.26000000	     -8.18553396	      0.35794485	     -0.66802263	     -0.71656721	      1.33230718	     -0.57231229	     24.53721291	     -1.06194686	      1.16462653	     49.14883398	      0.85780898	    -25.58531154	    -20.53660222	     -5.47043248	     21.16357167	     -3.85988477	     -3.38091870	     38.97508820	      0.68024362	    -29.54135706	    -16.15590737	     -5.47043248	     -4.58979537	     -0.45823201	     -1.86084320	     57.33482445	    -45.76786128	     33.86489854	     84.31984744	    109.80389967	     62.67553851	    -27.79114420	      9.75156344	     62.03132810	    111.22709811
      1.27000000	     -7.86880497	      0.30601760	     -0.43737155	     -0.70820571	      1.33183975	     -0.57253495	     24.59248559	     -1.20896166	      0.92419249	     46.43917011	      0.81051642	    -24.69834680	    -20.13606152	     -5.50959682	     21.50649179	     -3.92053741	     -3.45032846	     36.14233331	      0.63080272	    -28.73189555	    -16.05654630	     -5.50959682	     -5.59323511	     -0.42908162	     -1.88209419	     57.02946926	    -47.31283947	     34.53956278	     84.29799018	    109.78829543	     62.97385810	    -28.54131476	     10.02164897	     61.38605484	    111.22226296
      1.28000000	     -7.49518100	      0.24710266	     -0.27284857	     -0.69966582	      1.33049074	     -0.57272894	     24.41828234	     -1.32899991	      0.78017288	     43.31683643	      0.75602142	    -23.88256937	    -19.51622833	     -5.54735034	     21.62870905	     -3.96841044	     -3.56604951	     32.99343861	      0.57584414	    -27.80286844	    -15.53181608	     -5.54735034	     -6.67515387	     -0.38464207	     -1.82669070	     56.78469668	    -48.97223804	     35.38907909	     84.37427755	    109.65673737	     63.23472795	    -29.34125510	     10.48390311	     60.86603421	    111.13457273
      1.29000000	     -7.11386970	      0.21818196	     -0.19080132	     -0.69100408	      1.32808869	     -0.57278550	     24.18165207	     -1.48640210	      0.66995686	     40.03557224	      0.69875255	    -23.26367025	    -18.46607574	     -5.59446859	     21.69221834	     -4.00076376	     -3.72902581	     29.81229244	      0.52032266	    -26.90377120	    -14.58118450	     -5.59446859	     -7.76590705	     -0.36803428	     -1.65045947	     56.57923737	    -50.80602965	     36.42815471	     84.60570031	    109.45263704	     63.54722968	    -30.21908795	     11.25793453	     60.24947234	    111.12808220
      1.30000000	     -6.79033822	      0.23698145	     -0.10741323	     -0.68214011	      1.32460026	     -0.57285667	     23.97078706	     -1.72683056	      0.47552982	     36.68888703	      0.64034188	    -23.21618220	    -17.34945080	     -5.63479253	     21.82355391	     -3.97793711	     -3.92334773	     26.72414731	      0.46642436	    -26.35784962	    -13.45703648	     -5.63479253	     -8.76885513	     -0.40291177	     -1.51277672	     56.33455769	    -52.60406144	     37.43080309	     84.82839467	    109.21413689	     63.78464268	    -31.18559474	     12.08206900	     59.72834524	    111.15413163
      1.31000000	     -6.49017207	      0.27811556	     -0.02321377	     -0.67293120	      1.32003830	     -0.57289971	     23.73721659	     -2.00192182	      0.14302384	     33.33044029	      0.58172592	    -23.55237731	    -16.40777823	     -5.66765105	     22.02131257	     -3.95719446	     -4.32557800	     23.84258851	      0.41613167	    -26.12823907	    -12.15524028	     -5.66765105	     -9.67155034	     -0.46167671	     -1.39458674	     56.05875071	    -54.40413477	     38.49578854	     85.04857415	    108.97085638	     63.95364612	    -32.28494312	     13.06010340	     59.21848624	    111.17411588
      1.32000000	     -6.14731859	      0.30376171	      0.04308019	     -0.66349200	      1.31441518	     -0.57285070	     23.42366992	     -2.23456773	     -0.33074104	     30.00526109	      0.52369060	    -24.17682848	    -15.85114975	     -5.71421933	     22.23033659	     -3.99218124	     -5.01140737	     21.27007431	      0.37123283	    -26.00189347	    -10.66519226	     -5.71421933	    -10.56320472	     -0.50758104	     -1.18879851	     55.88294970	    -56.39051574	     39.90252536	     85.39452042	    108.58230581	     64.36518857	    -33.49401585	     14.72905642	     58.39840697	    111.22635582
      1.33000000	     -5.96309915	      0.34226657	      0.04604256	     -0.65389097	      1.30736297	     -0.57259443	     23.32392845	     -2.42568566	     -0.82705456	     26.85321637	      0.46867704	    -25.31928942	    -15.54250131	     -5.79310758	     22.65099906	     -4.03854502	     -5.73832843	     19.00396100	      0.33168169	    -26.24639367	     -9.38777207	     -5.79310758	    -11.15564589	     -0.60873760	     -0.84436498	     55.65568987	    -58.49219165	     41.59696131	     85.79824607	    107.91007104	     65.00578751	    -34.74228475	     17.09861878	     57.13627330	    111.32053337
      1.34000000	     -5.80722895	      0.41903334	      0.03066272	     -0.64392128	      1.29930236	     -0.57228998	     23.31990166	     -2.69735316	     -1.56829288	     23.96908545	      0.41833946	    -26.59500481	    -14.53688764	     -5.83370703	     23.05059457	     -4.04190985	     -6.50833248	     16.86773435	      0.29439750	    -27.19297043	     -8.33478697	     -5.83370703	    -11.65169713	     -0.70495012	     -0.62392435	     55.30534214	    -60.37500410	     42.88718370	     86.30066158	    107.60474837	     65.18158150	    -36.10729941	     18.66020447	     56.42753834	    111.38104417
